<svg width="1920" height="1200" viewBox="0 0 1920 1200" fill="none" xmlns="http://www.w3.org/2000/svg">
  <g clip-path="url(#clip0_74_404)">
    <mask id="mask0_74_404" style="mask-type:alpha" maskUnits="userSpaceOnUse" x="63" y="-91" width="846" height="558">
      <g style="mix-blend-mode:color-dodge" opacity="0.4">
        <path d="M230.625 -90.5C182.125 -47.5 80.7 43.975 63 65.875L908.625 466.75L230.625 -90.5Z" fill="#F1FFF2" />
      </g>
    </mask>
    <g mask="url(#mask0_74_404)">
      <g style="mix-blend-mode:overlay">
        <circle cx="502.444" cy="181.135" r="1.26402" transform="rotate(113.954 502.444 181.135)" fill="white" />
      </g>
      <circle cx="476.585" cy="191.087" r="0.632337" transform="rotate(113.954 476.585 191.087)" fill="white" />
      <g style="mix-blend-mode:overlay">
        <circle cx="514.579" cy="230.097" r="0.632337" transform="rotate(113.954 514.579 230.097)" fill="white" />
      </g>
      <circle cx="400.708" cy="227.968" r="0.632337" transform="rotate(113.954 400.708 227.968)" fill="white" />
      <g style="mix-blend-mode:overlay">
        <circle cx="432.437" cy="215.732" r="0.632337" transform="rotate(113.954 432.437 215.732)" fill="white" />
      </g>
      <g style="mix-blend-mode:overlay">
        <circle cx="463.431" cy="219.128" r="1.26402" transform="rotate(113.954 463.431 219.128)" fill="white" />
      </g>
      <circle cx="490.439" cy="228.355" r="1.26402" transform="rotate(113.954 490.439 228.355)" fill="white" />
      <g style="mix-blend-mode:overlay">
        <circle cx="424.55" cy="247.5" r="1.26402" transform="rotate(113.954 424.55 247.5)" fill="white" />
      </g>
      <g style="mix-blend-mode:overlay">
        <circle cx="448.86" cy="178.77" r="0.632337" transform="rotate(113.954 448.86 178.77)" fill="white" />
      </g>
      <circle cx="441.163" cy="208.544" r="0.632337" transform="rotate(113.954 441.163 208.544)" fill="white" />
      <circle cx="458.472" cy="237.881" r="0.632337" transform="rotate(113.954 458.472 237.881)" fill="white" />
      <g style="mix-blend-mode:overlay">
        <circle cx="491.477" cy="219.831" r="0.632337" transform="rotate(113.954 491.477 219.831)" fill="white" />
      </g>
      <g style="mix-blend-mode:overlay">
        <circle cx="425.356" cy="173.365" r="1.28151" transform="rotate(-179.476 425.356 173.365)" fill="white" />
      </g>
      <g style="mix-blend-mode:overlay">
        <circle cx="405.67" cy="153.316" r="0.641086" transform="rotate(-179.476 405.67 153.316)" fill="white" />
      </g>
      <g style="mix-blend-mode:overlay">
        <circle cx="384.699" cy="204.391" r="0.641086" transform="rotate(-179.476 384.699 204.391)" fill="white" />
      </g>
      <g style="mix-blend-mode:overlay">
        <circle cx="333.819" cy="162.914" r="0.641086" transform="rotate(-179.476 333.819 162.914)" fill="white" />
      </g>
      <circle cx="364.946" cy="122.189" r="0.641086" transform="rotate(-179.476 364.946 122.189)" fill="white" />
      <g style="mix-blend-mode:overlay">
        <circle cx="374.285" cy="152.39" r="1.28151" transform="rotate(-179.476 374.285 152.39)" fill="white" />
      </g>
      <g style="mix-blend-mode:overlay">
        <circle cx="343.155" cy="193.117" r="1.28151" transform="rotate(-179.476 343.155 193.117)" fill="white" />
      </g>
      <circle cx="332.218" cy="127.658" r="1.28151" transform="rotate(-179.476 332.218 127.658)" fill="white" />
      <circle cx="405.953" cy="122.566" r="0.641086" transform="rotate(-179.476 405.953 122.566)" fill="white" />
      <circle cx="375.153" cy="127.409" r="0.641086" transform="rotate(-179.476 375.153 127.409)" fill="white" />
      <g style="mix-blend-mode:overlay">
        <circle cx="354.042" cy="193.857" r="0.641086" transform="rotate(-179.476 354.042 193.857)" fill="white" />
      </g>
      <g style="mix-blend-mode:overlay">
        <circle cx="384.935" cy="178.76" r="0.641086" transform="rotate(-179.476 384.935 178.76)" fill="white" />
      </g>
      <circle cx="294.792" cy="49.2158" r="1.39846" transform="rotate(118.947 294.792 49.2158)" fill="white" />
      <g style="mix-blend-mode:overlay">
        <circle cx="269.9" cy="49.9933" r="0.699594" transform="rotate(118.947 269.9 49.9933)" fill="white" />
      </g>
      <circle cx="308.019" cy="96.6486" r="0.699594" transform="rotate(118.947 308.019 96.6486)" fill="white" />
      <g style="mix-blend-mode:overlay">
        <circle cx="241.785" cy="123.937" r="0.699594" transform="rotate(118.947 241.785 123.937)" fill="white" />
      </g>
      <g style="mix-blend-mode:overlay">
        <circle cx="218.871" cy="72.9093" r="0.699594" transform="rotate(118.947 218.871 72.9093)" fill="white" />
      </g>
      <g style="mix-blend-mode:overlay">
        <circle cx="252.707" cy="79.6358" r="1.39846" transform="rotate(118.947 252.707 79.6358)" fill="white" />
      </g>
      <circle cx="275.533" cy="140.384" r="1.39846" transform="rotate(118.947 275.533 140.384)" fill="white" />
      <g style="mix-blend-mode:overlay">
        <circle cx="207.116" cy="107.157" r="1.39846" transform="rotate(118.947 207.116 107.157)" fill="white" />
      </g>
      <g style="mix-blend-mode:overlay">
        <circle cx="240.531" cy="33.7492" r="0.699594" transform="rotate(118.947 240.531 33.7492)" fill="white" />
      </g>
      <g style="mix-blend-mode:overlay">
        <circle cx="229.179" cy="65.8234" r="0.699594" transform="rotate(118.947 229.179 65.8234)" fill="white" />
      </g>
      <circle cx="281.985" cy="120.601" r="0.699594" transform="rotate(118.947 281.985 120.601)" fill="white" />
      <circle cx="283.544" cy="83.1105" r="0.699594" transform="rotate(118.947 283.544 83.1105)" fill="white" />
      <g style="mix-blend-mode:overlay">
        <circle cx="454.971" cy="25.0514" r="1.55021" transform="rotate(60.0765 454.971 25.0514)" fill="white" />
      </g>
      <g style="mix-blend-mode:overlay">
        <circle cx="446.13" cy="57.8607" r="0.775508" transform="rotate(60.0765 446.13 57.8607)" fill="white" />
      </g>
      <g style="mix-blend-mode:overlay">
        <circle cx="512.246" cy="48.4281" r="0.775508" transform="rotate(60.0765 512.246 48.4281)" fill="white" />
      </g>
      <g style="mix-blend-mode:overlay">
        <circle cx="500.185" cy="126.915" r="0.775508" transform="rotate(60.0765 500.185 126.915)" fill="white" />
      </g>
      <g style="mix-blend-mode:overlay">
        <circle cx="438.632" cy="119.416" r="0.775508" transform="rotate(60.0765 438.632 119.416)" fill="white" />
      </g>
      <g style="mix-blend-mode:overlay">
        <circle cx="464.404" cy="91.1637" r="1.55021" transform="rotate(60.0765 464.404 91.1637)" fill="white" />
      </g>
      <circle cx="526.219" cy="120.544" r="1.55021" transform="rotate(60.0765 526.219 120.544)" fill="white" />
      <g style="mix-blend-mode:overlay">
        <circle cx="464.607" cy="127.181" r="1.55021" transform="rotate(60.0765 464.607 127.181)" fill="white" />
      </g>
      <g style="mix-blend-mode:overlay">
        <circle cx="413.887" cy="76.4223" r="0.775508" transform="rotate(60.0765 413.887 76.4223)" fill="white" />
      </g>
      <g style="mix-blend-mode:overlay">
        <circle cx="437.819" cy="105.574" r="0.775508" transform="rotate(60.0765 437.819 105.574)" fill="white" />
      </g>
      <circle cx="495.74" cy="93.1381" r="0.775508" transform="rotate(60.0765 495.74 93.1381)" fill="white" />
      <g style="mix-blend-mode:overlay">
        <circle cx="485.377" cy="63.893" r="0.775508" transform="rotate(60.0765 485.377 63.893)" fill="white" />
      </g>
      <g style="mix-blend-mode:overlay">
        <circle cx="502.444" cy="181.135" r="1.26402" transform="rotate(113.954 502.444 181.135)" fill="white" />
      </g>
      <circle cx="476.585" cy="191.087" r="0.632337" transform="rotate(113.954 476.585 191.087)" fill="white" />
      <g style="mix-blend-mode:overlay">
        <circle cx="514.579" cy="230.097" r="0.632337" transform="rotate(113.954 514.579 230.097)" fill="white" />
      </g>
      <circle cx="400.708" cy="227.968" r="0.632337" transform="rotate(113.954 400.708 227.968)" fill="white" />
      <g style="mix-blend-mode:overlay">
        <circle cx="432.437" cy="215.732" r="0.632337" transform="rotate(113.954 432.437 215.732)" fill="white" />
      </g>
      <g style="mix-blend-mode:overlay">
        <circle cx="463.431" cy="219.128" r="1.26402" transform="rotate(113.954 463.431 219.128)" fill="white" />
      </g>
      <circle cx="490.439" cy="228.355" r="1.26402" transform="rotate(113.954 490.439 228.355)" fill="white" />
      <g style="mix-blend-mode:overlay">
        <circle cx="424.55" cy="247.5" r="1.26402" transform="rotate(113.954 424.55 247.5)" fill="white" />
      </g>
      <g style="mix-blend-mode:overlay">
        <circle cx="448.86" cy="178.77" r="0.632337" transform="rotate(113.954 448.86 178.77)" fill="white" />
      </g>
      <circle cx="441.163" cy="208.544" r="0.632337" transform="rotate(113.954 441.163 208.544)" fill="white" />
      <circle cx="458.472" cy="237.881" r="0.632337" transform="rotate(113.954 458.472 237.881)" fill="white" />
      <g style="mix-blend-mode:overlay">
        <circle cx="491.477" cy="219.831" r="0.632337" transform="rotate(113.954 491.477 219.831)" fill="white" />
      </g>
      <g style="mix-blend-mode:overlay">
        <circle cx="425.356" cy="173.365" r="1.28151" transform="rotate(-179.476 425.356 173.365)" fill="white" />
      </g>
      <g style="mix-blend-mode:overlay">
        <circle cx="405.67" cy="153.316" r="0.641086" transform="rotate(-179.476 405.67 153.316)" fill="white" />
      </g>
      <g style="mix-blend-mode:overlay">
        <circle cx="384.699" cy="204.391" r="0.641086" transform="rotate(-179.476 384.699 204.391)" fill="white" />
      </g>
      <g style="mix-blend-mode:overlay">
        <circle cx="333.819" cy="162.914" r="0.641086" transform="rotate(-179.476 333.819 162.914)" fill="white" />
      </g>
      <circle cx="364.946" cy="122.189" r="0.641086" transform="rotate(-179.476 364.946 122.189)" fill="white" />
      <g style="mix-blend-mode:overlay">
        <circle cx="374.285" cy="152.39" r="1.28151" transform="rotate(-179.476 374.285 152.39)" fill="white" />
      </g>
      <g style="mix-blend-mode:overlay">
        <circle cx="343.155" cy="193.117" r="1.28151" transform="rotate(-179.476 343.155 193.117)" fill="white" />
      </g>
      <circle cx="332.218" cy="127.658" r="1.28151" transform="rotate(-179.476 332.218 127.658)" fill="white" />
      <circle cx="405.953" cy="122.566" r="0.641086" transform="rotate(-179.476 405.953 122.566)" fill="white" />
      <circle cx="375.153" cy="127.409" r="0.641086" transform="rotate(-179.476 375.153 127.409)" fill="white" />
      <g style="mix-blend-mode:overlay">
        <circle cx="354.042" cy="193.857" r="0.641086" transform="rotate(-179.476 354.042 193.857)" fill="white" />
      </g>
      <g style="mix-blend-mode:overlay">
        <circle cx="384.935" cy="178.76" r="0.641086" transform="rotate(-179.476 384.935 178.76)" fill="white" />
      </g>
      <circle cx="294.792" cy="49.2158" r="1.39846" transform="rotate(118.947 294.792 49.2158)" fill="white" />
      <g style="mix-blend-mode:overlay">
        <circle cx="269.9" cy="49.9933" r="0.699594" transform="rotate(118.947 269.9 49.9933)" fill="white" />
      </g>
      <circle cx="308.019" cy="96.6486" r="0.699594" transform="rotate(118.947 308.019 96.6486)" fill="white" />
      <g style="mix-blend-mode:overlay">
        <circle cx="241.785" cy="123.937" r="0.699594" transform="rotate(118.947 241.785 123.937)" fill="white" />
      </g>
      <g style="mix-blend-mode:overlay">
        <circle cx="218.871" cy="72.9093" r="0.699594" transform="rotate(118.947 218.871 72.9093)" fill="white" />
      </g>
      <g style="mix-blend-mode:overlay">
        <circle cx="252.707" cy="79.6358" r="1.39846" transform="rotate(118.947 252.707 79.6358)" fill="white" />
      </g>
      <circle cx="275.533" cy="140.384" r="1.39846" transform="rotate(118.947 275.533 140.384)" fill="white" />
      <g style="mix-blend-mode:overlay">
        <circle cx="207.116" cy="107.157" r="1.39846" transform="rotate(118.947 207.116 107.157)" fill="white" />
      </g>
      <g style="mix-blend-mode:overlay">
        <circle cx="240.531" cy="33.7492" r="0.699594" transform="rotate(118.947 240.531 33.7492)" fill="white" />
      </g>
      <g style="mix-blend-mode:overlay">
        <circle cx="229.179" cy="65.8234" r="0.699594" transform="rotate(118.947 229.179 65.8234)" fill="white" />
      </g>
      <circle cx="281.985" cy="120.601" r="0.699594" transform="rotate(118.947 281.985 120.601)" fill="white" />
      <circle cx="283.544" cy="83.1105" r="0.699594" transform="rotate(118.947 283.544 83.1105)" fill="white" />
      <g style="mix-blend-mode:overlay">
        <circle cx="454.971" cy="25.0514" r="1.55021" transform="rotate(60.0765 454.971 25.0514)" fill="white" />
      </g>
      <g style="mix-blend-mode:overlay">
        <circle cx="446.13" cy="57.8607" r="0.775508" transform="rotate(60.0765 446.13 57.8607)" fill="white" />
      </g>
      <g style="mix-blend-mode:overlay">
        <circle cx="512.246" cy="48.4281" r="0.775508" transform="rotate(60.0765 512.246 48.4281)" fill="white" />
      </g>
      <g style="mix-blend-mode:overlay">
        <circle cx="500.185" cy="126.915" r="0.775508" transform="rotate(60.0765 500.185 126.915)" fill="white" />
      </g>
      <g style="mix-blend-mode:overlay">
        <circle cx="438.632" cy="119.416" r="0.775508" transform="rotate(60.0765 438.632 119.416)" fill="white" />
      </g>
      <g style="mix-blend-mode:overlay">
        <circle cx="464.404" cy="91.1637" r="1.55021" transform="rotate(60.0765 464.404 91.1637)" fill="white" />
      </g>
      <circle cx="526.219" cy="120.544" r="1.55021" transform="rotate(60.0765 526.219 120.544)" fill="white" />
      <g style="mix-blend-mode:overlay">
        <circle cx="464.607" cy="127.181" r="1.55021" transform="rotate(60.0765 464.607 127.181)" fill="white" />
      </g>
      <g style="mix-blend-mode:overlay">
        <circle cx="413.887" cy="76.4223" r="0.775508" transform="rotate(60.0765 413.887 76.4223)" fill="white" />
      </g>
      <g style="mix-blend-mode:overlay">
        <circle cx="437.819" cy="105.574" r="0.775508" transform="rotate(60.0765 437.819 105.574)" fill="white" />
      </g>
      <circle cx="495.74" cy="93.1381" r="0.775508" transform="rotate(60.0765 495.74 93.1381)" fill="white" />
      <g style="mix-blend-mode:overlay">
        <circle cx="485.377" cy="63.893" r="0.775508" transform="rotate(60.0765 485.377 63.893)" fill="white" />
      </g>
    </g>
    <mask id="mask1_74_404" style="mask-type:alpha" maskUnits="userSpaceOnUse" x="408" y="50" width="421" height="857">
      <g style="mix-blend-mode:color-dodge" opacity="0.4">
        <path d="M636.772 50.0448C572.085 54.1458 435.855 63.9459 408.432 70.3384L828.974 906.357L636.772 50.0448Z"
          fill="#F1FFF2" />
      </g>
    </mask>
    <g mask="url(#mask1_74_404)">
      <g style="mix-blend-mode:overlay">
        <circle cx="684.182" cy="431.389" r="1.26402" transform="rotate(151.886 684.182 431.389)" fill="white" />
      </g>
      <circle cx="657.669" cy="423.342" r="0.632337" transform="rotate(151.886 657.669 423.342)" fill="white" />
      <g style="mix-blend-mode:overlay">
        <circle cx="663.655" cy="477.466" r="0.632337" transform="rotate(151.886 663.655 477.466)" fill="white" />
      </g>
      <circle cx="575.149" cy="405.787" r="0.632337" transform="rotate(151.886 575.149 405.787)" fill="white" />
      <g style="mix-blend-mode:overlay">
        <circle cx="607.697" cy="415.642" r="0.632337" transform="rotate(151.886 607.697 415.642)" fill="white" />
      </g>
      <g style="mix-blend-mode:overlay">
        <circle cx="630.056" cy="437.372" r="1.26402" transform="rotate(151.886 630.056 437.372)" fill="white" />
      </g>
      <circle cx="645.686" cy="461.252" r="1.26402" transform="rotate(151.886 645.686 461.252)" fill="white" />
      <g style="mix-blend-mode:overlay">
        <circle cx="581.947" cy="435.85" r="1.26402" transform="rotate(151.886 581.947 435.85)" fill="white" />
      </g>
      <g style="mix-blend-mode:overlay">
        <circle cx="643.373" cy="396.584" r="0.632337" transform="rotate(151.886 643.373 396.584)" fill="white" />
      </g>
      <circle cx="618.999" cy="415.335" r="0.632337" transform="rotate(151.886 618.999 415.335)" fill="white" />
      <circle cx="614.616" cy="449.114" r="0.632337" transform="rotate(151.886 614.616 449.114)" fill="white" />
      <g style="mix-blend-mode:overlay">
        <circle cx="651.744" cy="455.167" r="0.632337" transform="rotate(151.886 651.744 455.167)" fill="white" />
      </g>
      <g style="mix-blend-mode:overlay">
        <circle cx="628.157" cy="377.871" r="1.28151" transform="rotate(-141.543 628.157 377.871)" fill="white" />
      </g>
      <g style="mix-blend-mode:overlay">
        <circle cx="624.954" cy="349.957" r="0.641086" transform="rotate(-141.543 624.954 349.957)" fill="white" />
      </g>
      <g style="mix-blend-mode:overlay">
        <circle cx="577.016" cy="377.349" r="0.641086" transform="rotate(-141.543 577.016 377.349)" fill="white" />
      </g>
      <g style="mix-blend-mode:overlay">
        <circle cx="562.383" cy="313.357" r="0.641086" transform="rotate(-141.543 562.383 313.357)" fill="white" />
      </g>
      <circle cx="611.969" cy="300.371" r="0.641086" transform="rotate(-141.543 611.969 300.371)" fill="white" />
      <g style="mix-blend-mode:overlay">
        <circle cx="600.769" cy="329.933" r="1.28151" transform="rotate(-141.543 600.769 329.933)" fill="white" />
      </g>
      <g style="mix-blend-mode:overlay">
        <circle cx="551.18" cy="342.919" r="1.28151" transform="rotate(-141.543 551.18 342.919)" fill="white" />
      </g>
      <circle cx="582.793" cy="284.566" r="1.28151" transform="rotate(-141.543 582.793 284.566)" fill="white" />
      <circle cx="644.081" cy="325.877" r="0.641086" transform="rotate(-141.543 644.081 325.877)" fill="white" />
      <circle cx="616.811" cy="310.762" r="0.641086" transform="rotate(-141.543 616.811 310.762)" fill="white" />
      <g style="mix-blend-mode:overlay">
        <circle cx="559.312" cy="350.195" r="0.641086" transform="rotate(-141.543 559.312 350.195)" fill="white" />
      </g>
      <g style="mix-blend-mode:overlay">
        <circle cx="592.958" cy="357.279" r="0.641086" transform="rotate(-141.543 592.958 357.279)" fill="white" />
      </g>
      <circle cx="601.495" cy="199.689" r="1.39846" transform="rotate(156.88 601.495 199.689)" fill="white" />
      <g style="mix-blend-mode:overlay">
        <circle cx="581.384" cy="185" r="0.699594" transform="rotate(156.88 581.384 185)" fill="white" />
      </g>
      <circle cx="582.769" cy="245.231" r="0.699594" transform="rotate(156.88 582.769 245.231)" fill="white" />
      <g style="mix-blend-mode:overlay">
        <circle cx="513.753" cy="226.038" r="0.699594" transform="rotate(156.88 513.753 226.038)" fill="white" />
      </g>
      <g style="mix-blend-mode:overlay">
        <circle cx="527.048" cy="171.705" r="0.699594" transform="rotate(156.88 527.048 171.705)" fill="white" />
      </g>
      <g style="mix-blend-mode:overlay">
        <circle cx="549.601" cy="197.811" r="1.39846" transform="rotate(156.88 549.601 197.811)" fill="white" />
      </g>
      <circle cx="530.261" cy="259.756" r="1.39846" transform="rotate(156.88 530.261 259.756)" fill="white" />
      <g style="mix-blend-mode:overlay">
        <circle cx="496.723" cy="191.492" r="1.39846" transform="rotate(156.88 496.723 191.492)" fill="white" />
      </g>
      <g style="mix-blend-mode:overlay">
        <circle cx="568.206" cy="154.133" r="0.699594" transform="rotate(156.88 568.206 154.133)" fill="white" />
      </g>
      <g style="mix-blend-mode:overlay">
        <circle cx="539.534" cy="172.454" r="0.699594" transform="rotate(156.88 539.534 172.454)" fill="white" />
      </g>
      <circle cx="547.511" cy="248.12" r="0.699594" transform="rotate(156.88 547.511 248.12)" fill="white" />
      <circle cx="571.787" cy="219.508" r="0.699594" transform="rotate(156.88 571.787 219.508)" fill="white" />
      <g style="mix-blend-mode:overlay">
        <circle cx="742.688" cy="279.096" r="1.55021" transform="rotate(98.0091 742.688 279.096)" fill="white" />
      </g>
      <g style="mix-blend-mode:overlay">
        <circle cx="715.547" cy="299.54" r="0.775508" transform="rotate(98.0091 715.547 299.54)" fill="white" />
      </g>
      <g style="mix-blend-mode:overlay">
        <circle cx="773.493" cy="332.744" r="0.775508" transform="rotate(98.0091 773.493 332.744)" fill="white" />
      </g>
      <g style="mix-blend-mode:overlay">
        <circle cx="715.731" cy="387.235" r="0.775508" transform="rotate(98.0091 715.731 387.235)" fill="white" />
      </g>
      <g style="mix-blend-mode:overlay">
        <circle cx="671.793" cy="343.481" r="0.775508" transform="rotate(98.0091 671.793 343.481)" fill="white" />
      </g>
      <g style="mix-blend-mode:overlay">
        <circle cx="709.487" cy="337.041" r="1.55021" transform="rotate(98.0091 709.487 337.041)" fill="white" />
      </g>
      <circle cx="740.182" cy="398.214" r="1.55021" transform="rotate(98.0091 740.182 398.214)" fill="white" />
      <g style="mix-blend-mode:overlay">
        <circle cx="687.506" cy="365.574" r="1.55021" transform="rotate(98.0091 687.506 365.574)" fill="white" />
      </g>
      <g style="mix-blend-mode:overlay">
        <circle cx="678.705" cy="294.359" r="0.775508" transform="rotate(98.0091 678.705 294.359)" fill="white" />
      </g>
      <g style="mix-blend-mode:overlay">
        <circle cx="679.66" cy="332.063" r="0.775508" transform="rotate(98.0091 679.66 332.063)" fill="white" />
      </g>
      <circle cx="732.989" cy="357.862" r="0.775508" transform="rotate(98.0091 732.989 357.862)" fill="white" />
      <g style="mix-blend-mode:overlay">
        <circle cx="742.794" cy="328.424" r="0.775508" transform="rotate(98.0091 742.794 328.424)" fill="white" />
      </g>
      <g style="mix-blend-mode:overlay">
        <circle cx="684.182" cy="431.389" r="1.26402" transform="rotate(151.886 684.182 431.389)" fill="white" />
      </g>
      <circle cx="657.669" cy="423.342" r="0.632337" transform="rotate(151.886 657.669 423.342)" fill="white" />
      <g style="mix-blend-mode:overlay">
        <circle cx="663.655" cy="477.466" r="0.632337" transform="rotate(151.886 663.655 477.466)" fill="white" />
      </g>
      <circle cx="575.149" cy="405.787" r="0.632337" transform="rotate(151.886 575.149 405.787)" fill="white" />
      <g style="mix-blend-mode:overlay">
        <circle cx="607.697" cy="415.642" r="0.632337" transform="rotate(151.886 607.697 415.642)" fill="white" />
      </g>
      <g style="mix-blend-mode:overlay">
        <circle cx="630.056" cy="437.372" r="1.26402" transform="rotate(151.886 630.056 437.372)" fill="white" />
      </g>
      <circle cx="645.686" cy="461.252" r="1.26402" transform="rotate(151.886 645.686 461.252)" fill="white" />
      <g style="mix-blend-mode:overlay">
        <circle cx="581.947" cy="435.85" r="1.26402" transform="rotate(151.886 581.947 435.85)" fill="white" />
      </g>
      <g style="mix-blend-mode:overlay">
        <circle cx="643.373" cy="396.584" r="0.632337" transform="rotate(151.886 643.373 396.584)" fill="white" />
      </g>
      <circle cx="618.999" cy="415.335" r="0.632337" transform="rotate(151.886 618.999 415.335)" fill="white" />
      <circle cx="614.616" cy="449.114" r="0.632337" transform="rotate(151.886 614.616 449.114)" fill="white" />
      <g style="mix-blend-mode:overlay">
        <circle cx="651.744" cy="455.167" r="0.632337" transform="rotate(151.886 651.744 455.167)" fill="white" />
      </g>
      <g style="mix-blend-mode:overlay">
        <circle cx="628.157" cy="377.871" r="1.28151" transform="rotate(-141.543 628.157 377.871)" fill="white" />
      </g>
      <g style="mix-blend-mode:overlay">
        <circle cx="624.954" cy="349.957" r="0.641086" transform="rotate(-141.543 624.954 349.957)" fill="white" />
      </g>
      <g style="mix-blend-mode:overlay">
        <circle cx="577.016" cy="377.349" r="0.641086" transform="rotate(-141.543 577.016 377.349)" fill="white" />
      </g>
      <g style="mix-blend-mode:overlay">
        <circle cx="562.383" cy="313.357" r="0.641086" transform="rotate(-141.543 562.383 313.357)" fill="white" />
      </g>
      <circle cx="611.969" cy="300.371" r="0.641086" transform="rotate(-141.543 611.969 300.371)" fill="white" />
      <g style="mix-blend-mode:overlay">
        <circle cx="600.769" cy="329.933" r="1.28151" transform="rotate(-141.543 600.769 329.933)" fill="white" />
      </g>
      <g style="mix-blend-mode:overlay">
        <circle cx="551.18" cy="342.919" r="1.28151" transform="rotate(-141.543 551.18 342.919)" fill="white" />
      </g>
      <circle cx="582.793" cy="284.566" r="1.28151" transform="rotate(-141.543 582.793 284.566)" fill="white" />
      <circle cx="644.081" cy="325.877" r="0.641086" transform="rotate(-141.543 644.081 325.877)" fill="white" />
      <circle cx="616.811" cy="310.762" r="0.641086" transform="rotate(-141.543 616.811 310.762)" fill="white" />
      <g style="mix-blend-mode:overlay">
        <circle cx="559.312" cy="350.195" r="0.641086" transform="rotate(-141.543 559.312 350.195)" fill="white" />
      </g>
      <g style="mix-blend-mode:overlay">
        <circle cx="592.958" cy="357.279" r="0.641086" transform="rotate(-141.543 592.958 357.279)" fill="white" />
      </g>
      <circle cx="601.495" cy="199.689" r="1.39846" transform="rotate(156.88 601.495 199.689)" fill="white" />
      <g style="mix-blend-mode:overlay">
        <circle cx="581.384" cy="185" r="0.699594" transform="rotate(156.88 581.384 185)" fill="white" />
      </g>
      <circle cx="582.769" cy="245.231" r="0.699594" transform="rotate(156.88 582.769 245.231)" fill="white" />
      <g style="mix-blend-mode:overlay">
        <circle cx="513.753" cy="226.038" r="0.699594" transform="rotate(156.88 513.753 226.038)" fill="white" />
      </g>
      <g style="mix-blend-mode:overlay">
        <circle cx="527.048" cy="171.705" r="0.699594" transform="rotate(156.88 527.048 171.705)" fill="white" />
      </g>
      <g style="mix-blend-mode:overlay">
        <circle cx="549.601" cy="197.811" r="1.39846" transform="rotate(156.88 549.601 197.811)" fill="white" />
      </g>
      <circle cx="530.261" cy="259.756" r="1.39846" transform="rotate(156.88 530.261 259.756)" fill="white" />
      <g style="mix-blend-mode:overlay">
        <circle cx="496.723" cy="191.492" r="1.39846" transform="rotate(156.88 496.723 191.492)" fill="white" />
      </g>
      <g style="mix-blend-mode:overlay">
        <circle cx="568.206" cy="154.133" r="0.699594" transform="rotate(156.88 568.206 154.133)" fill="white" />
      </g>
      <g style="mix-blend-mode:overlay">
        <circle cx="539.534" cy="172.454" r="0.699594" transform="rotate(156.88 539.534 172.454)" fill="white" />
      </g>
      <circle cx="547.511" cy="248.12" r="0.699594" transform="rotate(156.88 547.511 248.12)" fill="white" />
      <circle cx="571.787" cy="219.508" r="0.699594" transform="rotate(156.88 571.787 219.508)" fill="white" />
      <g style="mix-blend-mode:overlay">
        <circle cx="742.688" cy="279.096" r="1.55021" transform="rotate(98.0091 742.688 279.096)" fill="white" />
      </g>
      <g style="mix-blend-mode:overlay">
        <circle cx="715.547" cy="299.54" r="0.775508" transform="rotate(98.0091 715.547 299.54)" fill="white" />
      </g>
      <g style="mix-blend-mode:overlay">
        <circle cx="773.493" cy="332.744" r="0.775508" transform="rotate(98.0091 773.493 332.744)" fill="white" />
      </g>
      <g style="mix-blend-mode:overlay">
        <circle cx="715.731" cy="387.235" r="0.775508" transform="rotate(98.0091 715.731 387.235)" fill="white" />
      </g>
      <g style="mix-blend-mode:overlay">
        <circle cx="671.793" cy="343.481" r="0.775508" transform="rotate(98.0091 671.793 343.481)" fill="white" />
      </g>
      <g style="mix-blend-mode:overlay">
        <circle cx="709.487" cy="337.041" r="1.55021" transform="rotate(98.0091 709.487 337.041)" fill="white" />
      </g>
      <circle cx="740.182" cy="398.214" r="1.55021" transform="rotate(98.0091 740.182 398.214)" fill="white" />
      <g style="mix-blend-mode:overlay">
        <circle cx="687.506" cy="365.574" r="1.55021" transform="rotate(98.0091 687.506 365.574)" fill="white" />
      </g>
      <g style="mix-blend-mode:overlay">
        <circle cx="678.705" cy="294.359" r="0.775508" transform="rotate(98.0091 678.705 294.359)" fill="white" />
      </g>
      <g style="mix-blend-mode:overlay">
        <circle cx="679.66" cy="332.063" r="0.775508" transform="rotate(98.0091 679.66 332.063)" fill="white" />
      </g>
      <circle cx="732.989" cy="357.862" r="0.775508" transform="rotate(98.0091 732.989 357.862)" fill="white" />
      <g style="mix-blend-mode:overlay">
        <circle cx="742.794" cy="328.424" r="0.775508" transform="rotate(98.0091 742.794 328.424)" fill="white" />
      </g>
    </g>
    <g style="mix-blend-mode:color-dodge" opacity="0.4" filter="url(#filter0_f_74_404)">
      <path d="M455.249 -235.679C337.22 -176.673 89.577 -50.2262 43.2319 -16.4855L1494.84 1217.4L455.249 -235.679Z"
        fill="url(#paint0_linear_74_404)" />
    </g>
  </g>
  <defs>
    <filter id="filter0_f_74_404" x="-38.4681" y="-317.379" width="1615.01" height="1616.48"
      filterUnits="userSpaceOnUse" color-interpolation-filters="sRGB">
      <feFlood flood-opacity="0" result="BackgroundImageFix" />
      <feBlend mode="normal" in="SourceGraphic" in2="BackgroundImageFix" result="shape" />
      <feGaussianBlur stdDeviation="40.85" result="effect1_foregroundBlur_74_404" />
    </filter>
    <linearGradient id="paint0_linear_74_404" x1="254.58" y1="-129.789" x2="1427.3" y2="1174.72"
      gradientUnits="userSpaceOnUse">
      <stop stop-color="#DDDDDD" />
      <stop offset="1" stop-color="#737373" stop-opacity="0" />
    </linearGradient>
    <clipPath id="clip0_74_404">
      <rect width="1920" height="1200" fill="white" />
    </clipPath>
  </defs>
</svg>
